<svg width="278" height="358" viewBox="0 0 278 358" fill="none" xmlns="http://www.w3.org/2000/svg">
<path d="M58.72 0.295998L56.544 15.272H25.312V36.52H52.576V51.24H25.312V73.896H58.72V89H4.32V0.295998H58.72ZM112.655 41.128L138.255 89H115.343L100.111 55.208L85.135 89H62.863L87.695 41.896L64.783 0.295998H87.567L100.367 28.712L113.807 0.295998H136.079L112.655 41.128ZM174.742 0.295998C186.433 0.295998 195.521 2.728 202.006 7.592C208.491 12.456 211.734 19.6667 211.734 29.224C211.734 39.208 208.534 46.76 202.134 51.88C195.819 56.9147 187.329 59.432 176.662 59.432H167.062V89H146.07V0.295998H174.742ZM174.87 44.328C179.819 44.328 183.574 43.176 186.134 40.872C188.779 38.4827 190.102 34.6 190.102 29.224C190.102 19.9227 184.897 15.272 174.486 15.272H167.062V44.328H174.87ZM277.22 0.295998L275.044 15.272H243.812V36.52H271.076V51.24H243.812V73.896H277.22V89H222.82V0.295998H277.22ZM33.504 188.08H25.312V222H4.32V133.296H33.376C45.4933 133.296 54.5813 135.515 60.64 139.952C66.784 144.389 69.856 151.173 69.856 160.304C69.856 166.021 68.4907 170.8 65.76 174.64C63.0293 178.395 58.72 181.595 52.832 184.24L75.36 222H51.68L33.504 188.08ZM25.312 173.616H34.144C38.8373 173.616 42.336 172.549 44.64 170.416C47.0293 168.283 48.224 164.912 48.224 160.304C48.224 156.037 46.944 152.923 44.384 150.96C41.9093 148.997 38.0693 148.016 32.864 148.016H25.312V173.616ZM104.312 133.296V222H83.32V133.296H104.312ZM175.22 133.296L173.044 148.272H141.812V169.52H169.076V184.24H141.812V206.896H175.22V222H120.82V133.296H175.22ZM131.188 125.36L123.892 117.04L142.068 100.528H154.356L172.404 117.04L165.236 125.36L148.212 114.608L131.188 125.36ZM256.547 222H229.795L204.195 153.264C205.048 160.005 205.688 165.979 206.115 171.184C206.627 176.304 206.883 182.405 206.883 189.488V222H188.195V133.296H214.307L240.547 202.16C238.67 190.469 237.731 179.461 237.731 169.136V133.296H256.547V222ZM40.544 264.12C46.0907 264.12 50.9973 264.931 55.264 266.552C59.616 268.173 63.712 270.605 67.552 273.848L57.568 285.752C54.9227 283.704 52.32 282.168 49.76 281.144C47.2 280.12 44.4693 279.608 41.568 279.608C35.5947 279.608 30.8587 282.125 27.36 287.16C23.9467 292.195 22.24 299.96 22.24 310.456C22.24 320.781 23.9467 328.461 27.36 333.496C30.8587 338.445 35.68 340.92 41.824 340.92C45.0667 340.92 48.0107 340.323 50.656 339.128C53.3013 337.848 56.16 336.056 59.232 333.752L68.576 345.784C65.248 349.112 61.1947 351.843 56.416 353.976C51.7227 356.109 46.5173 357.176 40.8 357.176C32.608 357.176 25.4827 355.384 19.424 351.8C13.3653 348.216 8.62933 342.925 5.216 335.928C1.888 328.845 0.224 320.355 0.224 310.456C0.224 300.813 1.93067 292.493 5.344 285.496C8.84267 278.499 13.6213 273.208 19.68 269.624C25.824 265.955 32.7787 264.12 40.544 264.12ZM98.937 266.296V355H77.945V266.296H98.937ZM162.165 355L157.557 335.928H131.701L127.221 355H105.461L132.213 266.296H157.685L184.437 355H162.165ZM135.285 320.696H153.973L144.629 281.528L135.285 320.696Z" fill="#000000"/>
</svg>
